<?xml version="1.0" encoding="utf-8"?>
<!-- Generator: Adobe Illustrator 22.0.0, SVG Export Plug-In . SVG Version: 6.00 Build 0)  -->
<svg version="1.1" id="Layer_1" xmlns="http://www.w3.org/2000/svg" xmlns:xlink="http://www.w3.org/1999/xlink" x="0px" y="0px"
	 viewBox="0 0 183.1 70.3" style="enable-background:new 0 0 183.1 70.3;" xml:space="preserve">
<style type="text/css">
	.st0{fill:#FE043C;}
</style>
<path d="M77.2,17.7c1.7,0.5,3.7-1,4.4-3.4c0.7-2.4,0-4.8-1.8-5.3c-1.7-0.5-3.7,1-4.4,3.4C74.7,14.8,75.4,17.2,77.2,17.7z
	 M180.7,14.6c-0.9,0.9-2.1,2.6-4,2.4c0,0,3.4-9.3-0.3-10.9c0,0,0.3-4.8-3.8-4.8s-9,2.8-13.1,9.8c-1.4,2.3-1.9,5-1.9,7.6l-7.3,6.2
	c0,0,1.6-4.3,2.8-6.1s4-7,1.5-8.6s-3.4,0.4-5.8,4.6s-10.8,12.2-12.4,9.8c-1.3-2,2.8-7.5,5.6-9.5s6.6-4,7.9-6.5s-1.4-2.7-2.3-2.7
	s-5.3,0.1-10.3,5.5c-3.2,3.4-4.5,7.1-5,10c0,0-2.4,3.3-5.4,5.4c-2.7,1.9-5,1.9-3.5-3.5s4.1-5.4,4.5-6.3c0.4-0.9-0.6-2.6-2.6-3.4
	c0,0,1-0.4,0.9-2.3s-5.3-2.5-11.1,0.5c-7.7,4.1-12.1,9.7-13.1,12.1c-0.3,0.7-0.3,1.3-0.5,2.2c-2.4,2.1-6.8,5.8-9.1,6.9
	c-3.3,1.6-6.8,2.8-7.4-1.3c-0.5-3.2,6.5-11.3,7.6-9.7c0,0-1.1,3,1.2,2.7s5.1-5,5.4-9s-4.4-3.4-7.3-1.8s-9.1,7.6-11.3,14.5
	c-0.4,1.2-0.5,2.4-0.4,3.5c-1.3,1.6-4.1,4.4-6.9,4.1c-3.9-0.5-2.9-4.6-0.4-6.6s5.4-6.3,4.9-8.9s-5.4-1.1-6.1-0.1s-4.8,6.5-5.6,9.9
	c-0.2,0.9-0.4,2.1-0.4,3.4c-1.4,1.7-3.7,4.3-5.1,4.3c-2.1,0-1.9-2.9-0.9-4.9s4.5-6.4,4.1-8.4s-4.3-2.9-9.3,1.9
	c-5,4.8-8.4,11-9.1,10.5c-0.7-0.5-0.6-3.3,4.4-10.5c6-8.8,11.8-14.1,12-17.5c0.2-2.4,0.6-7.5-1.4-6.7s-6.2,5.1-11.5,13.2
	c-3.1,4.8-6.6,12.6-7.9,18.7l0-1c0,0-10.7,10.4-20.4,16c-8,4.6-14.1,0.4-11.4-9.8c3.3-12.1,11-22.4,18.1-28.6
	c10.4-9.1,10,2.8,0.5,12.1c0,0,0.5-3.9-3.3-0.6s-5.6,8-6,11.9s4.9,3.8,12.3-3.9c7.4-7.6,10.7-18.5,9.4-23.4s-8-4.8-11.4-2.8
	S9.2,15.8,1.4,38.4C-5,57.3,10.1,62.6,18.6,57.1c7.4-4.8,19.1-15.3,22.1-18c0,0.6,0,1.2,0.1,1.7c0.8,5.4,4.3,4.5,4.9,3.3
	c0.6-1.3,5.4-8.9,7.8-11.3s5-4.3,5-3s-5.4,4.8-5.6,9.4s2.3,5.3,4.5,4.8c1.9-0.4,7.2-5.3,9-7c0.6,2.7,2.1,5,5,5.2
	c3.9,0.2,8-4.2,10.1-6.8c1.6,3.1,5,4.8,8.2,3.8c4.7-1.4,11.3-7.8,12.4-8.9c0.4,1.7,1.3,3.3,2.6,4.1c3.1,1.9,4.4,1.2,8.4-2.7
	s6.5-6.8,6.5-6.8s-0.9,2.9-1.1,5.6s0.3,7.2,5.3,3.6c3.6-2.6,6.8-5.6,9.1-7.7c0.5,2.7,2.3,5.2,6.8,2.8c4.9-2.6,9.3-8.3,9.3-8.3
	s-2.4,7.4-3.1,8.3s-11.4,11.8-10.9,15.8s3.5,3.1,7-1.4s6.1-12,6.1-12s0.9-0.8,1.8-1.8c0.7-0.8,6.5-5.7,8.8-7.6
	c0.9,3.5,3.2,6.1,6,6.1c5.8,0,11-7,11-7s8.7-0.8,7.8-5.6C182.7,13.6,181.5,13.7,180.7,14.6z M111.3,28.1c-2.4,2.3-4.5,4-5.5,1.6
	s2.1-5.1,6.1-8.6c4.4-3.9,8.3-6.5,8.8-4.4C120.7,16.7,113.7,25.8,111.3,28.1z M170.6,11.3c0,0-0.8,0.6-1.6,4.1s0.8,4.3,0.8,4.3
	s-0.1,3.8-4.3,4.3s-4.3-5.8-2.1-9.5c1.2-2.2,3.8-2.2,4.3-3.9c0.6-1.8,2.1-2,2.1-2C170.9,8.6,170.6,11.3,170.6,11.3z"/>
<g>
	<path class="st0" d="M65.2,60.9v1.6h-4.1v2h3.8V66h-3.8v3.2h-1.8v-8.4H65.2z"/>
	<path class="st0" d="M66.6,69.3v-8.4H70c1.6,0,3.3,0.6,3.3,2.7c0,1.4-0.8,2.2-1.8,2.5l2.5,3.2h-2.1l-2.3-2.9h-1.3v2.9H66.6z
		 M68.4,64.8h1.7c0.8,0,1.4-0.3,1.4-1.2c0-0.9-0.7-1.2-1.4-1.2h-1.7V64.8z"/>
	<path class="st0" d="M74.2,69.3l3.4-8.4h1.9l3.4,8.4h-1.9l-0.6-1.6h-3.8L76,69.3H74.2z M77.2,66.2h2.7l-1.2-3
		c-0.1-0.2-0.1-0.3-0.2-0.7c-0.1,0.3-0.1,0.5-0.2,0.7L77.2,66.2z"/>
	<path class="st0" d="M83.9,69.3v-8.4h1.7l3.9,5.5c0-0.3,0-0.8,0-1.2v-4.3h1.8v8.4h-1.7l-3.9-5.5c0,0.3,0,0.8,0,1.2v4.3H83.9z"/>
	<path class="st0" d="M97.1,60.7c0.8,0,1.7,0.2,2.4,0.5v1.7c-0.5-0.4-1.3-0.7-2.1-0.7c-1.5,0-3,0.8-3,2.9c0,1.8,1.5,2.7,3,2.7
		c0.9,0,1.7-0.2,2.2-0.7v1.8c-0.7,0.3-1.5,0.5-2.4,0.5c-2.2,0-4.5-1.3-4.5-4.3C92.6,62.1,94.9,60.7,97.1,60.7z"/>
	<path class="st0" d="M108.3,60.9v8.4h-1.8v-3.4h-3.8v3.4h-1.8v-8.4h1.8v3.4h3.8v-3.4H108.3z"/>
	<path class="st0" d="M111.9,60.9v8.4h-1.8v-8.4H111.9z"/>
	<path class="st0" d="M116.4,60.7c1,0,2,0.2,2.7,0.6V63c-0.7-0.5-1.7-0.8-2.6-0.7c-0.9,0-1.4,0.3-1.4,0.8c0,1.5,4.6,0.9,4.6,3.9
		c0,1.9-1.5,2.5-3.3,2.5c-1.2,0-2.2-0.3-3.1-0.8v-1.7c1,0.6,2,0.9,3,0.9c1,0,1.6-0.2,1.6-0.8c0-1.6-4.6-1-4.6-4
		C113.3,61.5,114.7,60.7,116.4,60.7z"/>
	<path class="st0" d="M126.9,60.9v1.6h-4.1v1.8h3.8v1.6h-3.8v1.9h4.2v1.6h-6v-8.4H126.9z"/>
</g>
</svg>
